# xmcd CD database file
#
# Track frame offsets:
#	182
#	15642
#	32877
#	53972
#	80467
#	101727
#	131892
#	156915
#	179532
#	211045
#	232580
#
# Disc length: 3546 seconds
#
# Revision: 0
# Processed by: cddbd v1.5.1PL0 Copyright (c) Steve Scherf et al.
# Submitted via: CDex 1.51
#
DISCID=8b0dd80b
DTITLE=Eli and Kathy Hernandez - Jesus Is Alive And Well
DYEAR=1996
DGENRE=Rhythmic Soul
TTITLE0=Jesus Is Alive And Well
TTITLE1=He Set Me Free
TTITLE2=Love Of God
TTITLE3=Victory In Jesus
TTITLE4=David's Song
TTITLE5=Goodbye World, Goodbye
TTITLE6=Down From His Glory
TTITLE7=A Blood Medley
TTITLE8=How Great Thou Art
TTITLE9=Amazing Grace
TTITLE10=Not on List
EXTD=YEAR: 1996
EXTT0=
EXTT1=
EXTT2=
EXTT3=
EXTT4=
EXTT5=
EXTT6=
EXTT7=
EXTT8=
EXTT9=
EXTT10=
PLAYORDER=
